<svg id="Ebene_1" data-name="Ebene 1" xmlns="http://www.w3.org/2000/svg" xmlns:xlink="http://www.w3.org/1999/xlink" viewBox="0 0 285.58 90"><defs><style>.cls-1{fill:none;}.cls-2{clip-path:url(#clip-path);}.cls-3{fill:#009ee0;}.cls-4{fill:#b1b3b4;}</style><clipPath id="clip-path"><rect class="cls-1" width="285.58" height="90"/></clipPath></defs><title>NBH_Logo</title><g class="cls-2"><path class="cls-3" d="M87.12,70.12a3.06,3.06,0,0,0-.91-2.26,5.13,5.13,0,0,0-2.49-1.23l-1.62-.37a2.45,2.45,0,0,1-1-.41.83.83,0,0,1-.24-.67.94.94,0,0,1,.45-.8,2.16,2.16,0,0,1,1.17-.29A5.23,5.23,0,0,1,84,64.3a8.8,8.8,0,0,1,1.64.68L87,62.9A7.24,7.24,0,0,0,84.89,62a10.31,10.31,0,0,0-2.51-.34,5.62,5.62,0,0,0-3.52,1.08,3.41,3.41,0,0,0-1.35,2.74A3.61,3.61,0,0,0,78,67.35a3.09,3.09,0,0,0,1,1.05,4.82,4.82,0,0,0,1.62.66l1.51.36a2.81,2.81,0,0,1,1.2.52,1,1,0,0,1,.38.81,1,1,0,0,1-.54.91,3.45,3.45,0,0,1-1.59.28,7,7,0,0,1-1.81-.25A15.34,15.34,0,0,1,78,71l-1,2.28a10,10,0,0,0,2.2.77,10.53,10.53,0,0,0,2.21.24,6.92,6.92,0,0,0,4.12-1.15,3.67,3.67,0,0,0,1.56-3.06"/><path class="cls-3" d="M98.66,73.08l-1.34-1.71a4.46,4.46,0,0,1-1.09.55,3.81,3.81,0,0,1-1.08.15,3.07,3.07,0,0,1-1.35-.27,2.58,2.58,0,0,1-.94-.8,3,3,0,0,1-.45-1.23,14.15,14.15,0,0,1-.12-2.06A7.27,7.27,0,0,1,92.47,66a2.42,2.42,0,0,1,.64-1.18,2.34,2.34,0,0,1,.86-.53A3.16,3.16,0,0,1,95.06,64a3.22,3.22,0,0,1,1,.17,5.06,5.06,0,0,1,1,.45l1.34-1.93a5,5,0,0,0-1.46-.67A7.13,7.13,0,0,0,95,61.78a6.45,6.45,0,0,0-2.95.7,5.25,5.25,0,0,0-2.14,2,6.09,6.09,0,0,0-.74,1.78,9.08,9.08,0,0,0-.22,2.16A7,7,0,0,0,89.39,71a5.51,5.51,0,0,0,1.39,2,4.45,4.45,0,0,0,1.84,1,8.57,8.57,0,0,0,2.35.27A6.35,6.35,0,0,0,97,74a5.47,5.47,0,0,0,1.66-.9"/></g><polygon class="cls-3" points="110.12 74.07 110.12 62.05 107.07 62.05 107.07 66.54 103.84 66.54 103.84 62.05 100.84 62.05 100.84 74.07 103.84 74.07 103.84 68.93 107.07 68.93 107.07 74.07 110.12 74.07"/><g class="cls-2"><path class="cls-3" d="M118.09,59.48a1.67,1.67,0,0,0-.49-1.19,1.59,1.59,0,0,0-1.16-.5,1.68,1.68,0,0,0-1.21,2.88,1.65,1.65,0,0,0,1.17.5,1.71,1.71,0,0,0,1.69-1.69m4.63,0a1.71,1.71,0,0,0-.49-1.19,1.59,1.59,0,0,0-1.16-.5,1.73,1.73,0,0,0-1.21.5,1.68,1.68,0,0,0-.5,1.19,1.71,1.71,0,0,0,.49,1.19,1.64,1.64,0,0,0,1.18.5,1.71,1.71,0,0,0,1.69-1.69M121.12,68a6.3,6.3,0,0,1-.63,3.28,1.93,1.93,0,0,1-1.79.91,2.08,2.08,0,0,1-1.87-.82,5.52,5.52,0,0,1-.6-3.09,6.51,6.51,0,0,1,.57-3.11A2,2,0,0,1,118.7,64a2,2,0,0,1,1.91,1,6.28,6.28,0,0,1,.51,2.87m3.42,0a6.14,6.14,0,0,0-1.62-4.53,5.8,5.8,0,0,0-4.17-1.51,5.73,5.73,0,0,0-4.29,1.64,6.47,6.47,0,0,0-1.57,4.59,6.27,6.27,0,0,0,1.55,4.39,5.86,5.86,0,0,0,4.42,1.71,5.35,5.35,0,0,0,4.25-1.74A6.85,6.85,0,0,0,124.54,68"/><path class="cls-3" d="M136.36,74.07v-12H133.6l0,4.4c0,.3,0,.7.05,1.18s.06.93.09,1.33.05.64.06.7-.1-.3-.22-.64-.27-.74-.44-1.18-.34-.82-.5-1.17l-2.33-4.62h-3.27v12h2.81l-.06-4.59c0-.3,0-.73-.05-1.3s0-1.08-.06-1.56,0-.73,0-.76.08.22.24.61.33.83.54,1.33.4,1,.58,1.35l2.23,4.92Z"/></g><polygon class="cls-3" points="147.34 74.07 147.34 71.63 142.58 71.63 142.58 68.95 146.09 68.95 146.09 66.61 142.56 66.61 142.56 64.37 146.77 64.37 147.21 62.05 139.58 62.05 139.58 74.07 147.34 74.07"/><g class="cls-2"><path class="cls-3" d="M156.27,65.56a.92.92,0,0,1-.34.84,2.22,2.22,0,0,1-1.32.27h-1.34V64.39h1.47a1.75,1.75,0,0,1,1.25.37,1,1,0,0,1,.28.8m.18,4.78a1.29,1.29,0,0,1-.44,1.07,1.92,1.92,0,0,1-1.25.35h-1.43V69h1.43a2.09,2.09,0,0,1,1.28.32,1.18,1.18,0,0,1,.41,1m3.38.33a2.9,2.9,0,0,0-.55-1.8,3.87,3.87,0,0,0-1.67-1.19,2.68,2.68,0,0,0,1.27-1,2.91,2.91,0,0,0-.55-3.8,4.3,4.3,0,0,0-2.74-.82h-5.26v12h4.89a5.62,5.62,0,0,0,3.56-.95,3.06,3.06,0,0,0,1.05-2.45"/></g><polygon class="cls-3" points="170.38 74.07 170.38 71.63 165.62 71.63 165.62 68.95 169.13 68.95 169.13 66.61 165.6 66.61 165.6 64.37 169.81 64.37 170.25 62.05 162.61 62.05 162.61 74.07 170.38 74.07"/><g class="cls-2"><path class="cls-3" d="M179.4,65.71a1.13,1.13,0,0,1-.47,1.05,3.12,3.12,0,0,1-1.68.33h-1V64.26h1a2.81,2.81,0,0,1,1.66.36,1.26,1.26,0,0,1,.45,1.09m4,8.36c-.12-.21-.39-.66-.81-1.34s-.87-1.38-1.35-2.11a18.7,18.7,0,0,0-1.15-1.6,3,3,0,0,0,1.69-1.12,3.59,3.59,0,0,0,.74-2.19,3.65,3.65,0,0,0-.24-1.4,3.58,3.58,0,0,0-.83-1.26,3.42,3.42,0,0,0-1.52-.8,7.91,7.91,0,0,0-1.9-.2h-4.65v12h2.91V69.24h.2c.15,0,.36.13.62.49s.75,1.14,1.44,2.32q.36.61.63,1l.65,1Z"/><path class="cls-3" d="M195.24,73.06V67.24h-5.35l.44,2.29h1.73v2.32a5.3,5.3,0,0,1-.61.19,3,3,0,0,1-.68.07,2.42,2.42,0,0,1-2-.77,4.8,4.8,0,0,1-.71-3,6.33,6.33,0,0,1,.61-3.27,2.3,2.3,0,0,1,2.18-1,4.41,4.41,0,0,1,1.45.24,4.75,4.75,0,0,1,1.31.7l1.6-1.78a6.67,6.67,0,0,0-2-1,7.76,7.76,0,0,0-2.36-.36,6,6,0,0,0-4.45,1.73,6.45,6.45,0,0,0-1.67,4.61,6.88,6.88,0,0,0,.32,2.27,5.5,5.5,0,0,0,1,1.81A5,5,0,0,0,188,73.71a7,7,0,0,0,2.68.47A9.63,9.63,0,0,0,193,73.9a10.37,10.37,0,0,0,2.26-.84"/><path class="cls-3" d="M87.3,52.13v-12H84.53l0,4.41c0,.3,0,.69,0,1.17s.06.93.09,1.34.05.63.06.69-.1-.29-.22-.64-.27-.74-.44-1.17-.33-.83-.5-1.17l-2.32-4.63H78v12h2.8l-.06-4.58c0-.31,0-.74,0-1.3s0-1.09-.06-1.57,0-.72,0-.75l.24.6c.15.38.33.83.54,1.34s.4,1,.58,1.35l2.24,4.91Z"/></g><path class="cls-3" d="M96,47.37h-2.3l1.18-4.67Zm4.67,4.76L96.56,40.07H93.38L89,52.13h3.16L93,49.58h3.55l.93,2.55Z"/><g class="cls-2"><path class="cls-3" d="M111.36,51.14,110,49.43a4.46,4.46,0,0,1-1.09.55,3.17,3.17,0,0,1-1.08.15,3.07,3.07,0,0,1-1.35-.27,2.46,2.46,0,0,1-.93-.8,2.78,2.78,0,0,1-.45-1.23,11.72,11.72,0,0,1-.12-2.06,6.83,6.83,0,0,1,.17-1.74,2.47,2.47,0,0,1,.64-1.18,2.57,2.57,0,0,1,.86-.53,2.93,2.93,0,0,1,1.09-.21,3.2,3.2,0,0,1,1,.16,5.06,5.06,0,0,1,1,.45l1.34-1.93a4.75,4.75,0,0,0-1.46-.66,6.75,6.75,0,0,0-1.92-.28,6.35,6.35,0,0,0-3,.69,5.39,5.39,0,0,0-2.14,2,6,6,0,0,0-.73,1.79,9,9,0,0,0-.23,2.16,7,7,0,0,0,.45,2.57,5.51,5.51,0,0,0,1.39,2,4.34,4.34,0,0,0,1.84,1,8.56,8.56,0,0,0,2.35.28,6.63,6.63,0,0,0,2-.29,5.07,5.07,0,0,0,1.66-.9"/></g><polygon class="cls-3" points="122.6 52.13 122.6 40.11 119.55 40.11 119.55 44.61 116.33 44.61 116.33 40.11 113.32 40.11 113.32 52.13 116.33 52.13 116.33 47 119.55 47 119.55 52.13 122.6 52.13"/><g class="cls-2"><path class="cls-3" d="M131.58,43.62a1,1,0,0,1-.34.85,2.33,2.33,0,0,1-1.33.27h-1.33V42.46h1.47a1.72,1.72,0,0,1,1.25.36,1.1,1.1,0,0,1,.28.8m.18,4.78a1.35,1.35,0,0,1-.44,1.08,2,2,0,0,1-1.25.35h-1.43V47.08h1.43a2,2,0,0,1,1.28.33,1.18,1.18,0,0,1,.41,1m3.38.33a3,3,0,0,0-.55-1.8,3.91,3.91,0,0,0-1.67-1.18,2.79,2.79,0,0,0,1.27-1,2.84,2.84,0,0,0,.46-1.6,2.72,2.72,0,0,0-1-2.21,4.25,4.25,0,0,0-2.73-.82h-5.26v12h4.89a5.52,5.52,0,0,0,3.55-1,3,3,0,0,0,1.06-2.45"/></g><path class="cls-3" d="M143.07,47.37h-2.3L142,42.7Zm4.68,4.76-4.08-12.06h-3.18l-4.37,12.06h3.16l.86-2.55h3.55l.92,2.55Z"/><g class="cls-2"><path class="cls-3" d="M156.07,43.77a1.16,1.16,0,0,1-.47,1.06,3,3,0,0,1-1.68.32h-1V42.32h1a2.76,2.76,0,0,1,1.67.37,1.24,1.24,0,0,1,.44,1.08m4,8.36c-.12-.21-.39-.66-.81-1.34s-.87-1.38-1.35-2.1a19.21,19.21,0,0,0-1.15-1.61A3,3,0,0,0,158.44,46a3.59,3.59,0,0,0,.74-2.19,3.65,3.65,0,0,0-.24-1.4,3.46,3.46,0,0,0-.83-1.25,3.19,3.19,0,0,0-1.52-.8,7.43,7.43,0,0,0-1.9-.21H150v12H153V47.3h.2c.15,0,.36.13.62.49s.75,1.14,1.44,2.32c.25.41.45.75.63,1l.65,1Z"/><path class="cls-3" d="M171.32,48.18a3,3,0,0,0-.91-2.25,5.22,5.22,0,0,0-2.49-1.24l-1.62-.37a2.47,2.47,0,0,1-1-.4.81.81,0,0,1-.24-.67.93.93,0,0,1,.45-.81,2.16,2.16,0,0,1,1.17-.29,5.31,5.31,0,0,1,1.48.22,8.1,8.1,0,0,1,1.63.68L171.21,41a7.46,7.46,0,0,0-2.13-.89,9.76,9.76,0,0,0-2.5-.33,5.67,5.67,0,0,0-3.52,1.07,3.41,3.41,0,0,0-1.35,2.74,3.58,3.58,0,0,0,.51,1.87,3.05,3.05,0,0,0,1,1,5,5,0,0,0,1.62.67l1.51.35a2.81,2.81,0,0,1,1.2.52,1,1,0,0,1,.38.82,1,1,0,0,1-.54.9,3.51,3.51,0,0,1-1.59.28,6.54,6.54,0,0,1-1.81-.25,13.67,13.67,0,0,1-1.76-.65l-1,2.28a10,10,0,0,0,2.2.77,10.53,10.53,0,0,0,2.21.24,6.85,6.85,0,0,0,4.12-1.15,3.67,3.67,0,0,0,1.56-3.06"/><path class="cls-3" d="M182.85,51.14l-1.33-1.71a4.46,4.46,0,0,1-1.09.55,3.23,3.23,0,0,1-1.09.15,3,3,0,0,1-1.34-.27,2.42,2.42,0,0,1-.94-.8,3,3,0,0,1-.45-1.23,14.05,14.05,0,0,1-.12-2.06,7.27,7.27,0,0,1,.18-1.74,2.54,2.54,0,0,1,.63-1.18,2.62,2.62,0,0,1,.87-.53,2.9,2.9,0,0,1,1.09-.21,3.09,3.09,0,0,1,1,.16,4.88,4.88,0,0,1,1,.45l1.34-1.93a4.75,4.75,0,0,0-1.46-.66,6.75,6.75,0,0,0-1.92-.28,6.39,6.39,0,0,0-3,.69,5.36,5.36,0,0,0-2.13,2,6,6,0,0,0-.74,1.79,9,9,0,0,0-.22,2.16,6.76,6.76,0,0,0,.45,2.57A5.51,5.51,0,0,0,175,51a4.34,4.34,0,0,0,1.84,1,8.56,8.56,0,0,0,2.35.28,6.63,6.63,0,0,0,2-.29,5,5,0,0,0,1.65-.9"/></g><polygon class="cls-3" points="194.32 52.13 194.32 40.11 191.27 40.11 191.27 44.61 188.04 44.61 188.04 40.11 185.04 40.11 185.04 52.13 188.04 52.13 188.04 47 191.27 47 191.27 52.13 194.32 52.13"/><path class="cls-3" d="M203.21,47.37h-2.3l1.18-4.67Zm4.67,4.76L203.8,40.07h-3.18l-4.36,12.06h3.15l.86-2.55h3.55l.93,2.55Z"/><polygon class="cls-3" points="217.04 40.11 209.84 40.11 209.84 52.13 212.8 52.13 212.8 47.09 215.88 47.09 215.88 44.74 212.8 44.74 212.8 42.39 216.69 42.39 217.04 40.11"/><polygon class="cls-3" points="228.29 40.11 218.55 40.11 218.55 42.48 221.64 42.48 221.64 52.13 224.71 52.13 224.71 42.48 227.72 42.48 228.29 40.11"/><g class="cls-2"><path class="cls-3" d="M238.91,48.18a3.07,3.07,0,0,0-.91-2.25,5.22,5.22,0,0,0-2.49-1.24l-1.63-.37a2.48,2.48,0,0,1-1-.4.85.85,0,0,1-.25-.67.94.94,0,0,1,.46-.81,2.16,2.16,0,0,1,1.17-.29,5.31,5.31,0,0,1,1.48.22,8.1,8.1,0,0,1,1.63.68L238.8,41a7.46,7.46,0,0,0-2.13-.89,9.76,9.76,0,0,0-2.5-.33,5.67,5.67,0,0,0-3.52,1.07,3.41,3.41,0,0,0-1.35,2.74,3.66,3.66,0,0,0,.5,1.87,3.09,3.09,0,0,0,1,1,5.07,5.07,0,0,0,1.61.67l1.52.35a2.93,2.93,0,0,1,1.2.52,1,1,0,0,1,.38.82,1,1,0,0,1-.54.9,3.51,3.51,0,0,1-1.59.28,6.54,6.54,0,0,1-1.81-.25,14.35,14.35,0,0,1-1.77-.65l-1,2.28a9.77,9.77,0,0,0,2.2.77,10.46,10.46,0,0,0,2.21.24,6.87,6.87,0,0,0,4.12-1.15,3.7,3.7,0,0,0,1.56-3.06"/></g><polygon class="cls-3" points="251.01 52.13 251.01 40.11 247.96 40.11 247.96 44.61 244.74 44.61 244.74 40.11 241.73 40.11 241.73 52.13 244.74 52.13 244.74 47 247.96 47 247.96 52.13 251.01 52.13"/><polygon class="cls-3" points="262.21 52.13 262.21 49.7 257.45 49.7 257.45 47.02 260.96 47.02 260.96 44.67 257.43 44.67 257.43 42.43 261.64 42.43 262.08 40.11 254.44 40.11 254.44 52.13 262.21 52.13"/><rect class="cls-3" x="265.42" y="40.11" width="3.09" height="12.02"/><g class="cls-2"><path class="cls-3" d="M285.58,52.13l-1.23-12h-3.73l-1.57,5.7c-.07.24-.15.55-.22.92s-.15.7-.21,1-.09.49-.1.54,0-.26-.1-.53-.11-.58-.18-.92-.14-.64-.2-.9l-1.52-5.81h-3.79l-1.3,12h3l.33-6.08c0-.26,0-.6,0-1s0-.81,0-1.16,0-.54,0-.57.07.32.14.69.17.76.26,1.17.16.71.21.9l1.65,6.08h2.57l1.79-6.27c.07-.22.15-.51.24-.85s.19-.67.26-1,.13-.45.14-.5,0,.2,0,.5,0,.63,0,1,0,.66,0,.88l.37,6.21Z"/><path class="cls-3" d="M21.1,41.15a15.7,15.7,0,0,1,4.73-3.25l2.31,28.18a14.5,14.5,0,0,0,7.84,0L38.29,37.9A15.52,15.52,0,0,1,43,41.15a8.67,8.67,0,0,1,4.59-3.85A21.4,21.4,0,0,0,33,30.63a7.44,7.44,0,1,0-1.78,0A21.4,21.4,0,0,0,16.51,37.3a8.71,8.71,0,0,1,4.59,3.85"/><path class="cls-3" d="M50.52,38A7.44,7.44,0,1,0,58,45.43,7.44,7.44,0,0,0,50.52,38"/><path class="cls-3" d="M50.52,54.06a8.64,8.64,0,0,0,3.11-.58l-.45,2.36-.12.59-4,20.36a29.92,29.92,0,0,1-6.76,3.51l2.08-10.72a21.42,21.42,0,0,1-24.73,0L21.77,80.3A29.92,29.92,0,0,1,15,76.79L11.06,56.44l-.12-.6-.45-2.36a8.43,8.43,0,0,0,3.11.58,8.78,8.78,0,0,0,3-.55c0,.43.1.85.18,1.27l.08.44a15.48,15.48,0,0,0,30.3,0l.08-.43q.12-.63.18-1.29a8.6,8.6,0,0,0,3.05.56"/><path class="cls-3" d="M21,45.43a7.44,7.44,0,1,0-7.44,7.44A7.44,7.44,0,0,0,21,45.43"/></g><polygon class="cls-4" points="32.02 0 0.01 16.13 4.81 20.02 32.02 6.42 59.24 19.98 64.01 16.09 32.02 0"/><polygon class="cls-4" points="7.49 84 0 90 64.06 90 56.72 84 7.49 84"/></svg>